<?xml version="1.0" encoding="UTF-8"?>
<svg id="Layer_1" data-name="Layer 1" xmlns="http://www.w3.org/2000/svg" xmlns:xlink="http://www.w3.org/1999/xlink" viewBox="0 0 600 600">
  <defs>
    <style>
      .cls-1 {
        fill: url(#linear-gradient);
      }
    </style>
    <linearGradient id="linear-gradient" x1="167.05" y1="658.25" x2="527.61" y2="297.69" gradientTransform="translate(-41.5 -165)" gradientUnits="userSpaceOnUse">
      <stop offset="0" stop-color="#92ce44"/>
      <stop offset=".49" stop-color="#1bb5db"/>
      <stop offset="1" stop-color="#c934e2"/>
    </linearGradient>
  </defs>
  <g id="_25_Naturopathy" data-name="25 Naturopathy">
    <path class="cls-1" d="m433.33,199.79c2.7,1.17,5.75-.12,6.88-2.72l17.77-41.03,1.02.61c8.68,5.16,19.95,2.33,25.14-6.37,5.19-8.73,2.32-19.96-6.37-25.14l-59.82-35.61c-8.7-5.18-19.96-2.31-25.14,6.38-5.2,8.75-2.3,19.97,6.38,25.13l.99.59-54.99,70.14c-1.78,2.27-1.38,5.56.89,7.34,2.28,1.78,5.56,1.39,7.34-.89l55.82-71.2,39.69,23.63-18.31,42.26c-1.14,2.65.07,5.73,2.72,6.88h0Zm-31.54-98.53c2.23-3.76,7.09-4.95,10.8-2.74l59.82,35.61c3.75,2.23,4.96,7.07,2.74,10.79-2.22,3.73-7.05,4.97-10.8,2.74-75.83-45.17-43.55-25.93-59.82-35.61-3.74-2.22-4.97-7.06-2.74-10.79Zm47.16,353.57c-2.48-1.48-3.29-4.69-1.82-7.17,3.27-5.49,6.49-11.29,9.58-17.24,1.32-2.56,4.46-3.57,7.05-2.24,2.56,1.33,3.57,4.48,2.24,7.05-3.18,6.14-6.5,12.13-9.87,17.79-1.48,2.48-4.69,3.29-7.17,1.82h0Zm26.32-69.28c10.64-35.21,10.52-68.5-.34-98.96-.97-2.72.44-5.71,3.17-6.68,2.73-.97,5.71.45,6.68,3.17,11.64,32.61,11.81,68.1.5,105.5-.83,2.75-3.74,4.33-6.52,3.49-2.77-.83-4.33-3.75-3.49-6.52h0Zm-309.18,137.32c0,14.59,11.87,26.46,26.46,26.46h235.52c14.59,0,26.46-11.87,26.46-26.46s-11.87-26.46-26.46-26.46h-1.46c5.76-7.59,11.01-14.9,15.86-22.14,1.61-2.4.97-5.65-1.42-7.26-2.39-1.61-5.65-.96-7.26,1.42-6.08,9.05-12.76,18.22-20.38,27.96h-206.21c-62.89-81.06-83.02-149.71-61.53-209.81.97-2.72-.44-5.71-3.16-6.68-2.73-.98-5.71.44-6.68,3.16-22.21,62.1-3.05,131.99,58.32,213.34h-1.59c-14.59,0-26.46,11.87-26.46,26.46h0Zm277.98,0c0,8.82-7.17,16-16,16h-235.52c-8.82,0-16-7.18-16-16s7.18-16,16-16h235.52c8.82,0,16,7.18,16,16Zm61.22-282.88c0-16.16-13.15-29.31-29.31-29.31H144.64c-16.16,0-29.31,13.15-29.31,29.31s13.15,29.31,29.31,29.31h331.35c16.16,0,29.31-13.15,29.31-29.31Zm-29.31,18.85H144.64c-10.39,0-18.85-8.46-18.85-18.85s8.46-18.85,18.85-18.85h331.35c10.39,0,18.85,8.46,18.85,18.85,0,10.39-8.46,18.85-18.85,18.85ZM200.68,48.67c-1.18,1.07-29.06,26.59-29.06,58.97s27.88,57.79,29.06,58.86c1.77,1.59,4.88,1.92,7,0,1.18-1.07,29.03-26.51,29.03-58.86s-27.83-57.89-29.02-58.97c-1.98-1.8-5.01-1.8-7.01,0Zm25.57,58.97c0,16.87-9.43,32.08-16.84,41.43v-50.71c0-2.89-2.34-5.23-5.23-5.23s-5.23,2.34-5.23,5.23v50.72c-7.42-9.35-16.87-24.56-16.87-41.44,0-21.35,15.08-40.09,22.1-47.65,7.01,7.56,22.07,26.3,22.07,47.65h0Zm95.86-14.45c-1.61-.09-39.35-1.75-62.24,21.15-22.87,22.87-21.15,60.58-21.07,62.17.13,2.39,2.13,4.8,4.95,4.95,19.94,1.11,46.61-5.57,62.14-21.1,22.89-22.89,21.26-60.62,21.18-62.21-.14-2.68-2.28-4.82-4.95-4.96Zm-23.62,59.78c-11.93,11.93-29.35,16.02-41.2,17.39l29.34-29.34c2.04-2.04,2.04-5.35,0-7.39-2.04-2.04-5.35-2.04-7.4,0l-29.37,29.37c1.35-11.85,5.41-29.28,17.4-41.26,15.1-15.1,39.01-17.68,49.32-18.07-.39,10.3-2.99,34.21-18.09,49.3Z"/>
  </g>
</svg>