<?xml version="1.0" encoding="UTF-8"?>
<svg id="Layer_1" data-name="Layer 1" xmlns="http://www.w3.org/2000/svg" xmlns:xlink="http://www.w3.org/1999/xlink" viewBox="0 0 600 600">
  <defs>
    <style>
      .cls-1 {
        fill: url(#linear-gradient);
      }
    </style>
    <linearGradient id="linear-gradient" x1="131.77" y1="323.48" x2="548.61" y2="323.48" gradientUnits="userSpaceOnUse">
      <stop offset="0" stop-color="#92ce44"/>
      <stop offset=".49" stop-color="#1bb5db"/>
      <stop offset="1" stop-color="#c934e2"/>
    </linearGradient>
  </defs>
  <path class="cls-1" d="m257.33,212.42c1.19,1.19,2.76,1.79,4.32,1.79s3.13-.6,4.32-1.79c2.38-2.39,2.38-6.25,0-8.64l-86.86-86.86c-2.39-2.38-6.25-2.38-8.64,0-2.38,2.39-2.38,6.25,0,8.64l86.86,86.86Zm10.26,55.77c7.06,7.07,9.98,17.2,7.61,26.45-2.52,9.81.45,20.28,7.74,27.3,5.44,5.24,12.48,7.89,19.54,7.89,6.31,0,12.64-2.12,17.83-6.41,7.14-5.89,10.86-14.6,10.23-23.67,9.06.63,17.76-3.08,23.65-10.21,9.08-10.99,8.47-27.05-1.42-37.36-7.04-7.34-17.54-10.31-27.39-7.77-9.2,2.38-19.31-.55-26.39-7.63l-15.79-15.79c-2.39-2.38-6.25-2.38-8.64,0-2.38,2.39-2.38,6.25,0,8.64l15.79,15.79c10.12,10.12,24.72,14.27,38.08,10.81,5.67-1.46,11.48.18,15.53,4.4,5.51,5.74,5.87,15.02.82,21.12-3.64,4.4-9.16,6.51-14.78,5.65-3.24-.5-6.56.59-8.88,2.91-2.32,2.32-3.41,5.64-2.91,8.88.87,5.62-1.25,11.15-5.66,14.79-6.12,5.04-15.4,4.67-21.13-.86-4.19-4.04-5.83-9.82-4.39-15.47,3.44-13.41-.7-28.01-10.8-38.11L142.35,125.69c-2.39-2.38-6.25-2.38-8.64,0-2.38,2.39-2.38,6.25,0,8.64l133.87,133.86Zm154.46,31.23c-1.95-9.71-8.64-17.72-17.89-21.42-9.1-3.64-19.29-2.5-27.25,3.08l-.5.36c-4.9,3.54-8.52,8.41-10.44,14.09-12.87,37.92-38,56.6-56.81,65.59-9.42,4.5-14.45,14.13-12.82,24.53,1.61,10.24,9.23,17.75,19.42,19.12,2.47.33,14.39.36,16.5.21,2.61-.18,5.07.68,6.93,2.43,1.77,1.66,2.75,3.91,2.75,6.34v112.05c0,3.37,2.73,6.11,6.11,6.11s6.11-2.73,6.11-6.11v-112.05c0-5.85-2.35-11.27-6.63-15.26-4.3-4.02-10.16-6.1-16.1-5.69-1.79.12-12.37.05-14.04-.13-5.7-.77-8.38-5.1-8.98-8.91-.62-3.93.64-9.05,6.02-11.62,20.94-10,48.88-30.73,63.11-72.69,1.09-3.22,3.23-6.1,6.02-8.11l.38-.27c4.63-3.25,10.35-3.88,15.69-1.74,5.41,2.16,9.31,6.83,10.45,12.49,4.27,21.24-5.11,44.52-23.88,59.31-5.12,4.03-8.06,10.06-8.06,16.54v148.12c0,3.37,2.73,6.11,6.11,6.11s6.11-2.73,6.11-6.11v-148.12c0-2.71,1.24-5.24,3.4-6.95,22.35-17.61,33.46-45.6,28.29-71.31h0Zm-130.01,131.1c-.76-3.29-4.04-5.33-7.33-4.57-3.29.76-5.33,4.04-4.57,7.33,6.27,27.09,9.78,58.26,10.44,92.64.06,3.33,2.78,5.99,6.1,5.99.04,0,.08,0,.12,0,3.37-.06,6.05-2.85,5.99-6.22-.67-35.23-4.29-67.25-10.75-95.16h0Zm-6.36-23.37c-15.52-48.96-41.43-83.1-77.01-101.47-26.69-13.78-45.67-34.31-56.43-61.04-8.04-19.98-8.25-36.19-8.25-36.56,0-3.37-2.74-6.1-6.11-6.1s-6.11,2.73-6.11,6.11c0,.74.1,18.4,8.93,40.6,8.14,20.46,25.57,48.84,62.37,67.84,32.58,16.82,56.46,48.55,70.97,94.31.82,2.6,3.23,4.26,5.82,4.26.61,0,1.23-.09,1.85-.29,3.21-1.02,4.99-4.45,3.97-7.67Zm228.58,6.71h-12.24v-12.24c0-5.3-4.31-9.61-9.61-9.61h-19.92c-5.3,0-9.61,4.31-9.61,9.61v12.24h-12.24c-5.3,0-9.61,4.31-9.61,9.61v19.92c0,5.3,4.31,9.61,9.61,9.61h12.24v12.24c0,5.3,4.31,9.61,9.61,9.61h19.92c5.3,0,9.61-4.31,9.61-9.61v-12.24h12.24c5.3,0,9.61-4.31,9.61-9.61v-19.92c0-5.3-4.31-9.61-9.61-9.61Zm-2.6,26.93h-12.24c-5.3,0-9.61,4.31-9.61,9.61v12.24h-14.71v-12.24c0-5.3-4.31-9.61-9.61-9.61h-12.24v-14.72h12.24c5.3,0,9.61-4.31,9.61-9.61v-12.24h14.71v12.24c0,5.3,4.31,9.61,9.61,9.61h12.24v14.72Zm-29.21-73.52c-9.04,0-17.67,1.82-25.53,5.12v-40.01c0-36.13-9.51-71.78-27.51-103.11-18-31.32-44.01-57.5-75.22-75.69l-64.68-37.7c-2.91-1.7-6.65-.71-8.35,2.2-1.7,2.91-.71,6.65,2.2,8.35l64.68,37.7c29.37,17.12,53.85,41.75,70.78,71.23,16.94,29.48,25.89,63.03,25.89,97.02v46.73c-17.17,11.97-28.43,31.85-28.43,54.32s11.26,42.36,28.43,54.32v38.04c0,3.37,2.73,6.11,6.11,6.11s6.11-2.73,6.11-6.11v-31.32c7.86,3.3,16.48,5.12,25.53,5.12,11.2,0,22.28-2.86,32.04-8.28,2.95-1.64,4.01-5.35,2.38-8.3-1.64-2.95-5.35-4.02-8.3-2.38-7.95,4.41-16.99,6.74-26.12,6.74-29.75,0-53.95-24.2-53.95-53.95s24.2-53.95,53.95-53.95,53.96,24.2,53.96,53.96c0,11.99-3.86,23.35-11.17,32.85-2.06,2.67-1.56,6.51,1.12,8.56,2.67,2.05,6.51,1.56,8.56-1.12,8.96-11.65,13.7-25.59,13.7-40.29,0-36.49-29.68-66.17-66.17-66.17h0Z"/>
</svg>